<svg width="541" height="730" viewBox="0 0 541 730" fill="none" xmlns="http://www.w3.org/2000/svg">
<ellipse cx="270.5" cy="688.5" rx="270.5" ry="41.5" fill="#916868" fill-opacity="0.79"/>
<path d="M207.495 113.315C203.807 89.1034 222.548 67.2926 247.039 67.2926H318.605C343.096 67.2926 361.837 89.1034 358.149 113.315L339.463 236.006C337.677 247.731 327.596 256.393 315.737 256.393H249.908C238.048 256.393 227.967 247.731 226.181 236.006L207.495 113.315Z" fill="#F6D5A9"/>
<ellipse cx="235.928" cy="84.1341" rx="15.1328" ry="14.8297" fill="#D69A6E"/>
<ellipse cx="193.556" cy="137.521" rx="21.1859" ry="20.7616" fill="#D69A6E"/>
<path d="M178.424 122.691L223.822 75.2362L250.691 87.4096L225.958 195.036L178.424 122.691Z" fill="#D69A6E"/>
<path d="M172.741 187.995L172.371 137.521L211.901 147.761L225.958 186.989L172.741 187.995Z" fill="#D69A6E"/>
<ellipse cx="199.852" cy="187.995" rx="27.1108" ry="26.1521" fill="#D69A6E"/>
<ellipse cx="15.1328" cy="14.8297" rx="15.1328" ry="14.8297" transform="matrix(-1 0 0 1 345.219 69.3043)" fill="#D69A6E"/>
<ellipse cx="21.1859" cy="20.7616" rx="21.1859" ry="20.7616" transform="matrix(-1 0 0 1 393.643 116.759)" fill="#D69A6E"/>
<path d="M387.59 122.691L342.192 75.2362L315.323 87.4096L340.056 195.036L387.59 122.691Z" fill="#D69A6E"/>
<path d="M393.273 187.995L393.643 137.521L354.113 147.761L340.056 186.989L393.273 187.995Z" fill="#D69A6E"/>
<ellipse cx="27.1108" cy="26.1521" rx="27.1108" ry="26.1521" transform="matrix(-1 0 0 1 393.273 161.843)" fill="#D69A6E"/>
<ellipse cx="255.711" cy="161.843" rx="6.02463" ry="6.03511" fill="black"/>
<ellipse cx="307.925" cy="161.843" rx="6.02463" ry="6.03511" fill="black"/>
<path d="M282.027 180V188" stroke="black"/>
<path d="M271.027 184C271.027 189 278.672 191.143 282.027 188" stroke="black"/>
<path d="M293.027 184C293.027 189 285.64 191.143 282.027 188" stroke="black"/>
<ellipse cx="282.027" cy="179" rx="8" ry="5" fill="black"/>
<path d="M137.331 705.456C137.331 692.295 148 681.627 161.16 681.627H232.649V705.456H137.331V705.456Z" fill="#D69A6E"/>
<rect width="83.0512" height="210.783" rx="19.2783" transform="matrix(0.971448 -0.237252 0.282043 0.959402 120 506.362)" fill="#D69A6E"/>
<path d="M423.285 705.456C423.285 692.295 412.616 681.627 399.455 681.627H327.967V705.456H423.285V705.456Z" fill="#D69A6E"/>
<rect width="83.4547" height="211.807" rx="19.372" transform="matrix(-0.971448 -0.237252 -0.282043 0.959402 440.615 506.458)" fill="#D69A6E"/>
<path d="M225.748 237.671C227.625 221.537 241.291 209.369 257.534 209.369H309.984C326.308 209.369 340.015 221.656 341.794 237.882L389.919 676.878C391.477 691.083 380.353 703.494 366.062 703.494H198.504C184.15 703.494 173.006 690.978 174.665 676.72L225.748 237.671Z" fill="#F6D5A9"/>
<path d="M221.817 471.494C247.017 459.157 274.502 409.034 284.64 371.843V703.609C264.59 635.858 223.227 470.721 221.817 471.494Z" fill="#FCEEC0"/>
<path d="M343.131 468.415C319.324 455.916 294.218 409.524 284.64 371.843V703.29C303.582 634.648 341.799 467.632 343.131 468.415Z" fill="#FCEEC0"/>
<path d="M232.649 679.46H206.653C199.474 679.46 189.322 691.099 189.322 705.456H249.979C249.979 691.099 239.827 679.46 232.649 679.46Z" fill="#FCEEC0"/>
<path d="M206.653 705.456C206.653 698.957 206.653 688.126 210.985 685.959" stroke="black"/>
<path d="M230.482 705.456C230.482 698.957 230.482 688.126 226.15 685.959" stroke="black"/>
<path d="M353.962 679.46H327.967C320.788 679.46 310.636 691.099 310.636 705.456H371.293C371.293 691.099 361.141 679.46 353.962 679.46Z" fill="#FCEEC0"/>
<path d="M330.133 705.456C330.133 698.957 330.133 688.126 334.466 685.959" stroke="black"/>
<path d="M353.962 705.456C353.962 698.957 353.962 688.126 349.63 685.959" stroke="black"/>
</svg>
