<svg width="1280" height="832" viewBox="0 0 1280 832" fill="none" xmlns="http://www.w3.org/2000/svg">
<g id="RoadMapSvg">
<g id="levels">
<g id="1">
<g id="Rectangle 10" filter="url(#filter0_d_34_922)">
<rect x="692" y="675.546" width="90" height="91.523" rx="45" fill="#4EC306"/>
<rect x="691" y="674.546" width="92" height="93.523" rx="46" stroke="white" stroke-width="2"/>
</g>
<rect id="Rectangle 9" x="692" y="675.546" width="90" height="81.9893" rx="40.9947" fill="#67EB00"/>
<path id="Subtract" opacity="0.5" fill-rule="evenodd" clip-rule="evenodd" d="M734.645 705.598C728.428 687.696 707.902 674.562 697.452 690.371C694.006 695.583 692 701.83 692 708.546V724.535C692 742.761 706.775 757.535 725 757.535H749C750.853 757.535 752.034 755.669 751.426 753.919L734.645 705.598Z" fill="#8FFC06"/>
<g id="1_2" filter="url(#filter1_d_34_922)">
<path d="M742.04 746H734.11C733.882 746 733.769 745.886 733.769 745.658L733.837 697.567C733.837 697.385 733.928 697.294 734.11 697.294H741.972C742.154 697.294 742.245 697.385 742.245 697.567L742.313 745.658C742.313 745.886 742.222 746 742.04 746Z" fill="white"/>
</g>
</g>
<g id="2">
<g id="Rectangle 10_2" filter="url(#filter2_d_34_922)">
<rect x="1027" y="505.546" width="90" height="91.523" rx="45" fill="#4EC306"/>
<rect x="1026" y="504.546" width="92" height="93.523" rx="46" stroke="white" stroke-width="2"/>
</g>
<rect id="Rectangle 9_2" x="1027" y="505.546" width="90" height="81.9893" rx="40.9947" fill="#67EB00"/>
<path id="Subtract_2" opacity="0.5" fill-rule="evenodd" clip-rule="evenodd" d="M1069.65 535.598C1063.43 517.696 1042.9 504.562 1032.45 520.371C1029.01 525.583 1027 531.83 1027 538.546V554.535C1027 572.761 1041.77 587.535 1060 587.535H1084C1085.85 587.535 1087.03 585.669 1086.43 583.919L1069.65 535.598Z" fill="#8FFC06"/>
<g id="2_2" filter="url(#filter3_d_34_922)">
<path d="M1084.89 571H1058.78C1058.55 571 1058.44 570.886 1058.44 570.658V562.729C1058.44 562.637 1058.48 562.546 1058.57 562.455L1075.87 538.734C1076.19 538.301 1076.45 537.755 1076.65 537.094C1076.88 536.41 1077 535.818 1077 535.316C1077 533.949 1076.51 532.696 1075.53 531.557C1074.55 530.417 1073.3 529.848 1071.8 529.848C1070.36 529.848 1069.15 530.395 1068.14 531.488C1067.14 532.582 1066.64 533.972 1066.64 535.658V539.076C1066.64 539.304 1066.52 539.418 1066.3 539.418H1058.44C1058.25 539.418 1058.16 539.304 1058.16 539.076V535.658C1058.16 533.038 1058.81 530.657 1060.11 528.515C1061.39 526.373 1063.06 524.675 1065.13 523.422C1067.21 522.146 1069.43 521.508 1071.8 521.508C1074.31 521.508 1076.6 522.146 1078.67 523.422C1080.72 524.721 1082.36 526.418 1083.59 528.515C1084.85 530.611 1085.47 532.878 1085.47 535.316C1085.47 536.843 1085.2 538.404 1084.65 539.999C1084.13 541.571 1083.4 542.973 1082.46 544.203L1069.17 562.455H1084.89C1085.1 562.455 1085.2 562.546 1085.2 562.729V570.658C1085.2 570.886 1085.1 571 1084.89 571Z" fill="white"/>
</g>
</g>
<g id="3">
<g id="Rectangle 10_3" filter="url(#filter4_d_34_922)">
<rect x="801" y="360.546" width="90" height="91.523" rx="45" fill="#4EC306"/>
<rect x="800" y="359.546" width="92" height="93.523" rx="46" stroke="white" stroke-width="2"/>
</g>
<rect id="Rectangle 9_3" x="801" y="360.546" width="90" height="81.9893" rx="40.9947" fill="#67EB00"/>
<rect id="Rectangle 11" x="801" y="360.546" width="90" height="81.9893" rx="40.9947" fill="#67EB00"/>
<path id="Subtract_3" opacity="0.5" fill-rule="evenodd" clip-rule="evenodd" d="M843.645 390.598C837.428 372.696 816.902 359.562 806.452 375.371C803.006 380.583 801 386.83 801 393.546V409.535C801 427.761 815.775 442.535 834 442.535H858C859.853 442.535 861.034 440.669 860.426 438.919L843.645 390.598Z" fill="#8FFC06"/>
<g id="3_2" filter="url(#filter5_d_34_922)">
<path d="M845.8 426.786C843.362 426.786 841.094 426.137 838.998 424.838C836.924 423.562 835.261 421.853 834.008 419.711C832.777 417.546 832.162 415.188 832.162 412.636V409.491C832.162 409.241 832.253 409.115 832.436 409.115H840.297C840.525 409.115 840.639 409.241 840.639 409.491V412.636C840.639 414.162 841.129 415.484 842.108 416.601C843.088 417.694 844.319 418.241 845.8 418.241C847.44 418.241 848.728 417.672 849.662 416.532C850.596 415.37 851.063 414.071 851.063 412.636V410.756C851.063 409.298 850.608 407.987 849.696 406.825C848.785 405.663 847.634 405.082 846.244 405.082H843.51C843.282 405.082 843.168 404.957 843.168 404.706L843.236 396.879C843.236 396.697 843.327 396.605 843.51 396.605H846.244C847.497 396.605 848.614 396.116 849.594 395.136C850.574 394.156 851.063 392.868 851.063 391.273V390.316C851.063 388.812 850.562 387.536 849.56 386.488C848.557 385.44 847.304 384.916 845.8 384.916C844.364 384.916 843.145 385.44 842.143 386.488C841.14 387.536 840.639 388.812 840.639 390.316V393.666C840.639 393.894 840.548 394.008 840.365 394.008H832.504C832.322 394.008 832.23 393.894 832.23 393.666V389.94C832.23 387.388 832.88 385.11 834.179 383.104C835.455 381.099 837.13 379.504 839.203 378.319C841.277 377.112 843.476 376.508 845.8 376.508C848.329 376.508 850.631 377.123 852.704 378.354C854.778 379.607 856.418 381.259 857.626 383.31C858.856 385.36 859.472 387.616 859.472 390.077V391.205C859.472 393.256 859.13 395.033 858.446 396.537C857.763 398.018 856.817 399.442 855.609 400.81C856.817 402.2 857.774 403.726 858.48 405.39C859.187 407.053 859.54 408.762 859.54 410.517V412.636C859.54 415.233 858.925 417.615 857.694 419.779C856.441 421.921 854.778 423.63 852.704 424.906C850.631 426.16 848.329 426.786 845.8 426.786Z" fill="white"/>
</g>
</g>
<g id="4">
<g id="Rectangle 10_4" filter="url(#filter6_d_34_922)">
<rect x="417" y="353.546" width="90" height="91.523" rx="45" fill="#4EC306"/>
<rect x="416" y="352.546" width="92" height="93.523" rx="46" stroke="white" stroke-width="2"/>
</g>
<rect id="Rectangle 9_4" x="417" y="353.546" width="90" height="81.9893" rx="40.9947" fill="#67EB00"/>
<path id="Subtract_4" opacity="0.5" fill-rule="evenodd" clip-rule="evenodd" d="M459.645 383.598C453.428 365.696 432.902 352.562 422.452 368.371C419.006 373.583 417 379.83 417 386.546V402.535C417 420.761 431.775 435.535 450 435.535H474C475.853 435.535 477.034 433.669 476.426 431.919L459.645 383.598Z" fill="#8FFC06"/>
<g id="4_2" filter="url(#filter7_d_34_922)">
<path d="M469.541 417H461.646C461.463 417 461.372 416.886 461.372 416.658V408.455H446.23C446.048 408.455 445.957 408.341 445.957 408.113V400.423L461.201 368.567C461.315 368.385 461.463 368.294 461.646 368.294H469.541C469.678 368.294 469.746 368.385 469.746 368.567L469.814 400.115H474.736C474.964 400.115 475.078 400.241 475.078 400.491V408.113C475.078 408.341 474.987 408.455 474.805 408.455H469.814V416.658C469.814 416.886 469.723 417 469.541 417ZM461.372 400.115V384.871L454.229 400.115H461.372Z" fill="white"/>
</g>
</g>
<g id="5">
<g id="Rectangle 10_5" filter="url(#filter8_d_34_922)">
<rect x="167" y="191.546" width="90" height="91.523" rx="45" fill="#4EC306"/>
<rect x="166" y="190.546" width="92" height="93.523" rx="46" stroke="white" stroke-width="2"/>
</g>
<rect id="Rectangle 9_5" x="167" y="191.546" width="90" height="81.9893" rx="40.9947" fill="#67EB00"/>
<path id="Subtract_5" opacity="0.5" fill-rule="evenodd" clip-rule="evenodd" d="M209.645 221.598C203.428 203.696 182.902 190.562 172.452 206.371C169.006 211.583 167 217.83 167 224.546V240.535C167 258.761 181.775 273.535 200 273.535H224C225.853 273.535 227.034 271.67 226.426 269.919L209.645 221.598Z" fill="#8FFC06"/>
<g id="5_2" filter="url(#filter9_d_34_922)">
<path d="M210.312 255.684C207.829 255.684 205.55 255.057 203.477 253.804C201.38 252.55 199.694 250.887 198.418 248.813C197.165 246.74 196.538 244.484 196.538 242.046V239.961C196.538 239.756 196.652 239.653 196.88 239.653H204.81C204.992 239.653 205.083 239.756 205.083 239.961V241.567C205.083 243.14 205.596 244.473 206.621 245.566C207.646 246.637 208.877 247.173 210.312 247.173C211.771 247.173 213.001 246.626 214.004 245.532C215.007 244.416 215.508 243.094 215.508 241.567V236.816C215.508 235.358 214.984 234.139 213.936 233.159C212.887 232.179 211.589 231.689 210.039 231.689C208.034 231.689 206.382 232.487 205.083 234.082L204.946 234.287L197.461 233.706C197.21 233.706 197.085 233.592 197.085 233.364L197.939 214.189L198.35 206.567C198.35 206.385 198.441 206.294 198.623 206.294H222.173C222.355 206.294 222.446 206.385 222.446 206.567V214.189C222.446 214.417 222.355 214.531 222.173 214.531H205.767L205.425 224.204C205.994 223.931 206.735 223.703 207.646 223.521C208.558 223.315 209.378 223.213 210.107 223.213C212.637 223.213 214.961 223.828 217.08 225.059C219.199 226.312 220.885 227.964 222.139 230.015C223.415 232.065 224.053 234.333 224.053 236.816V241.567C224.053 244.097 223.438 246.444 222.207 248.608C220.954 250.75 219.29 252.471 217.217 253.77C215.143 255.046 212.842 255.684 210.312 255.684Z" fill="white"/>
</g>
</g>
<g id="6">
<g id="Rectangle 10_6" filter="url(#filter10_d_34_922)">
<rect x="479" y="35.5459" width="90" height="91.523" rx="45" fill="#4EC306"/>
<rect x="478" y="34.5459" width="92" height="93.523" rx="46" stroke="white" stroke-width="2"/>
</g>
<rect id="Rectangle 9_6" x="479" y="35.5459" width="90" height="81.9893" rx="40.9947" fill="#67EB00"/>
<path id="Subtract_6" opacity="0.5" fill-rule="evenodd" clip-rule="evenodd" d="M521.645 65.5983C515.428 47.6961 494.902 34.5624 484.452 50.3713C481.006 55.5833 479 61.8304 479 68.5461V84.5354C479 102.761 493.775 117.535 512 117.535H536C537.853 117.535 539.034 115.67 538.426 113.919L521.645 65.5983Z" fill="#8FFC06"/>
<g id="6_2" filter="url(#filter11_d_34_922)">
<path d="M522.723 99.6836C520.285 99.6836 518.017 99.0456 515.921 97.7695C513.847 96.4935 512.173 94.8073 510.896 92.7109C509.643 90.6146 509.017 88.3018 509.017 85.7725L508.948 63.6582C508.948 61.1061 509.586 58.7477 510.862 56.583C512.138 54.4411 513.813 52.7321 515.887 51.4561C517.983 50.1572 520.262 49.5078 522.723 49.5078C525.229 49.5078 527.531 50.1458 529.627 51.4219C531.701 52.7207 533.353 54.4297 534.583 56.5488C535.836 58.668 536.463 61.0378 536.463 63.6582V65.0596C536.463 65.2419 536.349 65.333 536.121 65.333H528.26C528.077 65.333 527.986 65.2419 527.986 65.0596V63.6582C527.986 62.1087 527.485 60.7871 526.482 59.6934C525.48 58.5996 524.227 58.0527 522.723 58.0527C521.287 58.0527 520.057 58.5996 519.031 59.6934C518.006 60.7871 517.493 62.1087 517.493 63.6582V68.4775C519.134 67.7712 520.877 67.418 522.723 67.418C525.252 67.418 527.553 68.0446 529.627 69.2979C531.701 70.5511 533.341 72.2487 534.549 74.3906C535.779 76.5098 536.395 78.8568 536.395 81.4316V85.7725C536.395 88.3018 535.779 90.626 534.549 92.7451C533.296 94.8643 531.644 96.5505 529.593 97.8037C527.542 99.057 525.252 99.6836 522.723 99.6836ZM522.723 91.3096C524.181 91.3096 525.411 90.7741 526.414 89.7031C527.417 88.6322 527.918 87.3219 527.918 85.7725V81.4316C527.918 79.9277 527.417 78.6289 526.414 77.5352C525.411 76.4414 524.181 75.8945 522.723 75.8945C521.287 75.8945 520.057 76.43 519.031 77.501C518.006 78.5719 517.493 79.8822 517.493 81.4316V85.7725C517.493 87.2536 518.006 88.5524 519.031 89.6689C520.057 90.7627 521.287 91.3096 522.723 91.3096Z" fill="white"/>
</g>
</g>
<g id="Star">
<path id="&#60;Path&#62;" d="M905.678 114C899.878 114 879.178 127.9 867.178 130.9C865.778 131.2 864.478 131 863.378 130.2C862.278 129.3 861.578 128.2 861.478 126.8C860.678 114.5 867.478 90.5 865.678 84.9C863.878 79.4 844.278 64 837.678 53.5C836.978 52.3 836.778 51 837.278 49.7C837.678 48.4 838.578 47.4 839.878 46.9C851.378 42.2 876.278 41.3 880.978 37.9C885.678 34.5 894.278 11.1 902.178 1.60004C903.078 0.500037 904.278 0 905.678 0C907.078 0 908.278 0.500037 909.178 1.60004C917.078 11.1 925.678 34.5 930.378 37.9C935.078 41.3 960.078 42.2 971.478 46.9C972.778 47.4 973.678 48.4 974.178 49.7C974.578 51 974.378 52.3 973.678 53.5C967.078 64 947.478 79.4 945.678 84.9C943.878 90.5 950.678 114.5 949.878 126.8C949.778 128.2 949.078 129.3 947.978 130.2C946.878 131 945.578 131.2 944.178 130.9C932.178 127.9 911.478 114 905.678 114Z" fill="url(#paint0_radial_34_922)"/>
<path id="&#60;Path&#62;_2" style="mix-blend-mode:screen" d="M905.678 114C899.878 114 879.178 127.9 867.178 130.9C865.778 131.2 864.478 131 863.378 130.2C862.278 129.3 861.578 128.2 861.478 126.8C860.678 114.5 867.478 90.5 865.678 84.9C863.878 79.4 844.278 64 837.678 53.5C836.978 52.3 836.778 51 837.278 49.7C837.678 48.4 838.578 47.4 839.878 46.9C851.378 42.2 876.278 41.3 880.978 37.9C885.678 34.5 894.278 11.1 902.178 1.60004C903.078 0.500037 904.278 0 905.678 0C907.078 0 908.278 0.500037 909.178 1.60004C917.078 11.1 925.678 34.5 930.378 37.9C935.078 41.3 960.078 42.2 971.478 46.9C972.778 47.4 973.678 48.4 974.178 49.7C974.578 51 974.378 52.3 973.678 53.5C967.078 64 947.478 79.4 945.678 84.9C943.878 90.5 950.678 114.5 949.878 126.8C949.778 128.2 949.078 129.3 947.978 130.2C946.878 131 945.578 131.2 944.178 130.9C932.178 127.9 911.478 114 905.678 114Z" fill="url(#paint1_radial_34_922)"/>
<path id="&#60;Path&#62;_3" style="mix-blend-mode:screen" d="M937.278 115.6C936.678 109.7 935.578 103.8 934.978 97.9C934.378 92.6 936.178 94.4001 937.578 97.6001C940.778 104.9 944.178 113.6 945.678 121C946.478 124.9 946.478 128.6 941.178 127.1C938.778 126.4 936.378 125.5 934.178 124.3C928.878 121.4 933.178 120.4 934.978 119.7C937.478 118.7 937.578 118.3 937.278 115.6Z" fill="url(#paint2_radial_34_922)"/>
<g id="&#60;Group&#62;" opacity="0.7">
<path id="&#60;Compound Path&#62;" style="mix-blend-mode:screen" fill-rule="evenodd" clip-rule="evenodd" d="M942.178 60C943.578 60 945.178 61.3 945.178 62.7C945.178 64.1 943.778 65.3 942.378 65.3C940.978 65.3 939.778 64.1 939.778 62.7C939.878 61.3 940.778 60 942.178 60ZM940.078 62.4C940.078 63.6 941.078 64.5 942.278 64.5C943.378 64.5 944.478 63.6 944.478 62.4C944.478 61.2 943.278 60.2 942.078 60.2C940.878 60.2 940.178 61.3 940.078 62.4ZM942.678 60.7C943.078 61.1 942.878 61.7 942.278 62.3C941.678 62.9 941.078 63.2 940.578 62.7C940.178 62.3 940.378 61.4 940.878 60.9C941.478 60.3 942.278 60.3 942.678 60.7ZM944.178 62C944.378 62.1 944.478 63 943.878 63.7C943.278 64.4 942.278 64.4 942.278 64.1C942.178 63.8 942.978 63.9 943.478 63.3C944.078 62.8 943.978 62 944.178 62Z" fill="url(#paint3_radial_34_922)"/>
<path id="&#60;Compound Path&#62;_2" style="mix-blend-mode:screen" opacity="0.7" fill-rule="evenodd" clip-rule="evenodd" d="M926.578 110C928.478 110 930.578 111.7 930.578 113.7C930.578 115.6 928.778 117.2 926.778 117.2C924.878 117.2 923.178 115.5 923.278 113.7C923.378 111.8 924.578 110 926.578 110ZM923.678 113.3C923.578 114.8 924.978 116.2 926.578 116.2C928.178 116.2 929.778 114.9 929.778 113.3C929.778 111.7 927.978 110.2 926.378 110.2C924.778 110.2 923.778 111.7 923.678 113.3ZM927.178 110.9C927.778 111.5 927.478 112.4 926.678 113.1C925.878 113.9 924.978 114.3 924.378 113.7C923.878 113.1 923.978 111.9 924.778 111.2C925.578 110.4 926.578 110.4 927.178 110.9ZM929.278 112.7C929.578 112.8 929.678 114.1 928.878 115C927.978 115.9 926.678 115.9 926.578 115.6C926.578 115.2 927.578 115.3 928.378 114.5C929.078 113.8 928.978 112.7 929.278 112.7Z" fill="url(#paint4_radial_34_922)"/>
<path id="&#60;Compound Path&#62;_3" style="mix-blend-mode:screen" opacity="0.6" fill-rule="evenodd" clip-rule="evenodd" d="M922.578 76.1001C924.378 76.1001 926.278 77.7001 926.278 79.5001C926.278 81.3001 924.578 82.7001 922.778 82.7001C920.978 82.7001 919.478 81.2001 919.578 79.5001C919.678 77.8001 920.778 76.1001 922.578 76.1001ZM919.878 79.1001C919.778 80.6001 921.078 81.8001 922.578 81.8001C924.078 81.8001 925.478 80.6001 925.478 79.1001C925.478 77.6001 923.878 76.3001 922.378 76.3001C920.878 76.3001 919.978 77.7001 919.878 79.1001ZM923.178 77.0001C923.678 77.5001 923.378 78.3001 922.678 79.0001C921.978 79.7001 921.078 80.1001 920.578 79.5001C920.078 79.0001 920.178 77.9001 920.878 77.2001C921.578 76.5001 922.578 76.4001 923.178 77.0001ZM925.078 78.6001C925.378 78.7001 925.478 79.9001 924.678 80.7001C923.878 81.6001 922.678 81.6001 922.578 81.3001C922.578 80.9001 923.478 81.0001 924.178 80.3001C924.878 79.6001 924.778 78.6001 925.078 78.6001Z" fill="url(#paint5_radial_34_922)"/>
<path id="&#60;Compound Path&#62;_4" style="mix-blend-mode:screen" fill-rule="evenodd" clip-rule="evenodd" d="M877.378 54.2C879.978 54.2 882.778 56.3999 882.778 58.9999C882.778 61.5999 880.278 63.7 877.778 63.7C875.178 63.7 872.878 61.4999 873.078 58.9999C873.278 56.4999 874.778 54.2 877.378 54.2ZM873.578 58.4999C873.478 60.4999 875.378 62.3 877.478 62.3C879.578 62.3 881.678 60.5999 881.678 58.4999C881.678 56.3999 879.278 54.4999 877.178 54.4999C875.078 54.4999 873.778 56.3999 873.578 58.4999ZM878.178 55.4C878.978 56.1 878.578 57.3 877.578 58.3C876.578 59.3 875.278 59.8 874.578 59.1C873.778 58.3 873.978 56.7 875.078 55.7C876.078 54.7 877.478 54.6 878.178 55.4ZM881.078 57.8C881.378 57.9 881.578 59.5 880.478 60.8C879.278 62 877.478 61.9999 877.478 61.4999C877.378 61.0999 878.778 61.1 879.778 60.1C880.778 59.2 880.678 57.7 881.078 57.8Z" fill="url(#paint6_radial_34_922)"/>
<path id="&#60;Compound Path&#62;_5" style="mix-blend-mode:screen" opacity="0.6" fill-rule="evenodd" clip-rule="evenodd" d="M934.278 48.2001C937.178 48.0001 939.478 50.0001 939.478 52.5001C939.478 55.0001 936.978 57.2001 934.278 57.1001C931.678 56.9001 929.578 55.0001 929.678 52.5001C929.878 49.9001 931.278 48.4001 934.278 48.2001ZM930.078 52.1001C929.978 54.2001 931.678 55.8001 933.878 55.9001C936.078 56.0001 938.078 54.2001 938.078 52.1001C938.078 50.1001 936.278 48.4001 933.878 48.6001C931.378 48.7001 930.178 50.0001 930.078 52.1001ZM934.678 49.4001C935.378 50.1001 935.078 51.4001 934.078 52.4001C932.978 53.4001 931.778 53.8001 931.078 53.0001C930.278 52.3001 930.578 50.8001 931.278 50.0001C932.078 49.1001 933.978 48.7001 934.678 49.4001ZM937.478 51.2001C937.878 51.3001 938.078 53.1001 936.878 54.3001C935.678 55.6001 933.878 55.6001 933.878 55.1001C933.778 54.6001 935.178 54.7001 936.178 53.7001C937.178 52.7001 937.178 51.1001 937.478 51.2001Z" fill="url(#paint7_radial_34_922)"/>
<path id="&#60;Compound Path&#62;_6" style="mix-blend-mode:screen" opacity="0.6" fill-rule="evenodd" clip-rule="evenodd" d="M867.878 70.5001C870.278 70.4001 871.978 71.9001 871.978 73.9001C871.978 75.9001 870.078 77.6001 867.978 77.5001C865.778 77.4001 864.178 75.9001 864.278 73.9001C864.378 71.9001 865.578 70.6001 867.878 70.5001ZM864.678 73.6001C864.578 75.2001 865.878 76.5001 867.578 76.6001C869.378 76.6001 870.978 75.3001 870.978 73.6001C870.978 72.0001 869.478 70.7001 867.578 70.8001C865.678 70.9001 864.678 71.9001 864.678 73.6001ZM868.278 71.5001C868.778 72.0001 868.478 73.0001 867.678 73.8001C866.878 74.6001 865.978 74.9001 865.378 74.3001C864.778 73.7001 864.978 72.6001 865.578 71.9001C866.178 71.2001 867.678 70.9001 868.278 71.5001ZM870.478 72.9001C870.778 73.0001 870.878 74.3001 869.978 75.4001C869.078 76.4001 867.578 76.4001 867.578 76.0001C867.578 75.6001 868.678 75.6001 869.478 74.8001C870.278 74.0001 870.178 72.8001 870.478 72.9001Z" fill="url(#paint8_radial_34_922)"/>
<path id="&#60;Compound Path&#62;_7" style="mix-blend-mode:screen" opacity="0.4" fill-rule="evenodd" clip-rule="evenodd" d="M897.878 95.6C900.878 95.4 903.078 97.4 903.078 99.9C903.078 102.5 900.578 104.6 897.978 104.5C895.278 104.4 893.178 102.4 893.278 99.9C893.478 97.3 894.878 95.8 897.878 95.6ZM893.778 99.4999C893.678 101.6 895.278 103.2 897.478 103.3C899.678 103.4 901.778 101.6 901.778 99.6C901.778 97.5 899.978 95.7999 897.478 95.9999C895.078 96.0999 893.878 97.3999 893.778 99.4999ZM898.278 96.8C899.078 97.6 898.678 98.8 897.678 99.8C896.678 100.8 895.378 101.2 894.678 100.5C893.878 99.6999 894.178 98.3 894.978 97.4C895.678 96.5 897.578 96.1 898.278 96.8ZM901.178 98.7C901.578 98.7 901.678 100.5 900.578 101.8C899.378 103.1 897.578 103 897.478 102.6C897.478 102.1 898.878 102.1 899.878 101.1C900.878 100.1 900.778 98.6 901.178 98.7Z" fill="url(#paint9_radial_34_922)"/>
<path id="&#60;Compound Path&#62;_8" style="mix-blend-mode:screen" opacity="0.4" fill-rule="evenodd" clip-rule="evenodd" d="M869.578 112.2C872.578 112 874.778 114 874.778 116.5C874.778 119.1 872.278 121.2 869.578 121.1C866.978 121 864.878 119 864.978 116.5C865.178 113.9 866.578 112.3 869.578 112.2ZM865.378 116.1C865.278 118.2 866.978 119.8 869.178 119.9C871.378 120 873.478 118.2 873.478 116.1C873.478 114.1 871.578 112.4 869.178 112.6C866.778 112.7 865.578 114 865.378 116.1ZM869.978 113.4C870.778 114.1 870.378 115.4 869.378 116.4C868.378 117.4 867.078 117.8 866.378 117.1C865.578 116.3 865.878 114.8 866.578 114C867.378 113.1 869.278 112.7 869.978 113.4ZM872.878 115.2C873.278 115.3 873.378 117.1 872.278 118.4C871.078 119.7 869.178 119.6 869.178 119.1C869.078 118.6 870.578 118.7 871.578 117.7C872.578 116.7 872.478 115.2 872.878 115.2Z" fill="url(#paint10_radial_34_922)"/>
<path id="&#60;Compound Path&#62;_9" style="mix-blend-mode:screen" opacity="0.4" fill-rule="evenodd" clip-rule="evenodd" d="M937.478 109.2C939.178 109.1 940.478 110.2 940.478 111.7C940.478 113.1 939.078 114.3 937.478 114.3C935.978 114.2 934.878 113.1 934.878 111.7C934.978 110.2 935.778 109.3 937.478 109.2ZM935.178 111.4C935.078 112.6 936.078 113.5 937.278 113.6C938.578 113.6 939.678 112.6 939.678 111.5C939.678 110.3 938.678 109.4 937.278 109.4C935.878 109.5 935.178 110.3 935.178 111.4ZM937.778 109.9C938.178 110.3 937.978 111.1 937.378 111.6C936.778 112.2 936.078 112.4 935.678 112C935.278 111.6 935.378 110.7 935.778 110.2C936.278 109.7 937.278 109.5 937.778 109.9ZM939.378 111C939.578 111 939.678 112 938.978 112.7C938.378 113.5 937.278 113.4 937.278 113.2C937.278 112.9 938.078 112.9 938.578 112.3C939.178 111.8 939.178 110.9 939.378 111Z" fill="url(#paint11_radial_34_922)"/>
<path id="&#60;Compound Path&#62;_10" style="mix-blend-mode:screen" fill-rule="evenodd" clip-rule="evenodd" d="M906.778 27.4C909.178 27.2 911.078 28.8 911.078 30.9C911.078 33 908.978 34.8 906.778 34.6C904.578 34.5 902.978 33 903.078 30.9C903.178 28.8 904.378 27.5 906.778 27.4ZM903.378 30.6C903.278 32.3 904.678 33.5999 906.478 33.6999C908.278 33.7999 909.978 32.3 909.978 30.6C909.978 28.9 908.478 27.5999 906.478 27.6999C904.478 27.7999 903.478 28.9 903.378 30.6ZM907.078 28.4C907.678 29 907.378 30 906.578 30.8C905.778 31.7 904.778 32 904.078 31.3C903.478 30.7 903.778 29.5 904.378 28.8C904.978 28.1 906.478 27.7 907.078 28.4ZM909.478 29.9C909.778 29.9 909.878 31.4 908.978 32.4C907.978 33.5 906.478 33.5 906.478 33.1C906.378 32.6 907.578 32.7 908.378 31.9C909.178 31 909.178 29.8 909.478 29.9Z" fill="url(#paint12_radial_34_922)"/>
<path id="&#60;Compound Path&#62;_11" style="mix-blend-mode:screen" opacity="0.4" fill-rule="evenodd" clip-rule="evenodd" d="M908.078 42.8C909.778 42.7 911.078 43.8 911.078 45.3C911.078 46.8 909.678 48 908.078 48C906.578 47.9 905.278 46.8 905.378 45.3C905.478 43.8 906.278 42.9 908.078 42.8ZM905.678 45C905.578 46.3 906.578 47.2 907.878 47.3C909.078 47.3 910.278 46.3 910.278 45.1C910.278 43.9 909.278 42.9 907.778 43C906.378 43.1 905.678 43.8 905.678 45ZM908.278 43.5C908.778 43.9 908.478 44.6 907.978 45.2C907.378 45.8 906.578 46 906.178 45.6C905.778 45.2 905.878 44.3 906.378 43.8C906.778 43.3 907.878 43 908.278 43.5ZM909.978 44.5C910.178 44.6 910.278 45.6 909.578 46.4C908.878 47.1 907.878 47.1 907.778 46.8C907.778 46.5 908.578 46.6 909.178 46C909.778 45.4 909.778 44.5 909.978 44.5Z" fill="url(#paint13_radial_34_922)"/>
<path id="&#60;Compound Path&#62;_12" style="mix-blend-mode:screen" fill-rule="evenodd" clip-rule="evenodd" d="M904.778 14.9C906.078 14.9 907.278 16.2 907.278 17.6C907.278 19.1 906.378 19.7 904.878 19.7C903.478 19.7 902.278 19.1 902.278 17.7C902.278 16.2 903.478 14.9 904.778 14.9ZM902.478 17.4C902.478 18.6 903.478 19.1 904.678 19.1C905.878 19.1 906.678 18.6 906.678 17.4C906.678 16.2 905.678 15.2 904.578 15.1C903.478 15.1 902.478 16.2 902.478 17.4ZM905.078 15.6C905.478 16 905.378 16.8 904.778 17.3C904.278 17.9 903.478 18 903.078 17.6C902.678 17.2 902.878 16.3 903.378 15.8C903.878 15.2 904.678 15.1 905.078 15.6ZM906.278 16.7C906.478 16.8 906.678 17.8 906.078 18.4C905.478 19.1 904.478 19 904.378 18.7C904.378 18.5 905.278 18.6 905.778 18.1C906.278 17.6 906.078 16.7 906.278 16.7Z" fill="url(#paint14_radial_34_922)"/>
<path id="&#60;Compound Path&#62;_13" style="mix-blend-mode:screen" fill-rule="evenodd" clip-rule="evenodd" d="M957.178 49C958.578 49 959.878 50.4 959.878 52C959.878 53.5 958.878 54.2 957.278 54.2C955.678 54.2 954.478 53.6 954.478 52C954.478 50.4 955.778 49 957.178 49ZM954.678 51.7C954.678 53 955.778 53.6 957.078 53.6C958.378 53.6 959.178 53 959.178 51.7C959.178 50.4 958.178 49.3 956.978 49.3C955.778 49.3 954.678 50.4 954.678 51.7ZM957.478 49.7C957.978 50.2 957.778 51 957.178 51.6C956.578 52.2 955.778 52.3 955.378 51.9C954.878 51.5 955.078 50.6 955.678 50C956.278 49.4 957.078 49.3 957.478 49.7ZM958.778 51C958.978 51.1 959.278 52.1 958.578 52.8C957.978 53.5 956.778 53.4 956.778 53.1C956.778 52.9 957.678 53 958.178 52.5C958.778 51.9 958.578 51 958.778 51Z" fill="url(#paint15_radial_34_922)"/>
<path id="&#60;Compound Path&#62;_14" style="mix-blend-mode:screen" fill-rule="evenodd" clip-rule="evenodd" d="M861.878 54.7C863.478 54.8 864.978 56.4 864.978 58.2C864.978 60 863.778 60.8 861.978 60.8C860.178 60.8 858.678 60 858.678 58.2C858.678 56.4 860.178 54.7 861.878 54.7ZM858.978 57.9C858.978 59.4 860.178 59.9999 861.678 59.9999C863.178 59.9999 864.278 59.4 864.278 57.9C864.278 56.4 862.978 55.0999 861.578 54.9999C860.278 54.9999 858.978 56.4 858.978 57.9ZM862.278 55.6C862.778 56.1 862.578 57.1 861.878 57.8C861.178 58.5 860.278 58.6 859.678 58.1C859.178 57.6 859.378 56.5 860.078 55.9C860.778 55.2 861.778 55.1 862.278 55.6ZM863.778 57.1C863.978 57.1 864.278 58.4 863.478 59.2C862.778 60 861.378 59.8999 861.378 59.4999C861.378 59.1999 862.478 59.4 863.078 58.8C863.678 58.1 863.478 57 863.778 57.1Z" fill="url(#paint16_radial_34_922)"/>
</g>
<path id="&#60;Path&#62;_4" style="mix-blend-mode:screen" d="M907.178 9.19998C910.178 17.7 911.778 26.6 914.878 35.1C916.378 39.1 919.478 44.9 924.278 45.3C934.978 46.3 944.878 44.9 957.278 46.6C960.878 47.1 959.178 48.3 957.978 48.6C953.678 49.9 949.278 51 945.078 52.4C905.378 65.6 898.478 71.2 871.278 101.3C867.778 105.2 866.978 102.1 866.978 100C867.178 95.5 869.378 88.4 868.178 84.5C866.878 80.2 847.178 62.3 842.878 57.5C835.578 49.5 837.878 47.2 847.978 45.6C857.178 44.1 866.678 43.8 875.878 42.2C883.378 40.9 884.478 37.4 887.478 31.3C890.978 24.2 894.278 16.6 897.978 9.60001C900.578 4.90001 904.878 2.49998 907.178 9.19998Z" fill="url(#paint17_radial_34_922)"/>
<path id="&#60;Compound Path&#62;_15" style="mix-blend-mode:screen" fill-rule="evenodd" clip-rule="evenodd" d="M866.278 48.8001C863.778 48.3001 864.378 45.7001 866.778 45.1001C870.578 44.2001 874.578 44.0001 878.378 43.1001C882.178 42.2001 884.578 41 886.878 36.2C890.878 27.8 895.078 17.0001 899.378 9.60006C900.978 6.90006 902.678 7.30008 902.278 10.3001C900.978 19.8001 898.678 28.9001 895.978 38.4001C894.678 43.2001 893.178 48.3001 886.578 49.1001C881.778 49.7001 871.378 49.8001 866.278 48.8001ZM856.378 50.3001C852.511 50.6334 848.644 50.6667 844.778 50.4001C841.178 50.2001 840.378 49.4 844.278 48C847.978 46.7 853.978 46.0001 856.978 45.8001C861.078 45.5001 861.778 49.9001 856.378 50.3001Z" fill="url(#paint18_radial_34_922)"/>
<path id="&#60;Path&#62;_5" style="mix-blend-mode:multiply" d="M967.478 47C959.578 45.7 948.578 44.8 935.278 43.9C923.678 43.1 922.478 40.7001 920.478 34.8C917.278 25.4 914.678 15.4 908.678 6.10004C905.478 1.00004 901.878 3.30002 898.478 6.90002C899.678 4.90002 900.978 3.10004 902.178 1.60004C903.078 0.500037 904.278 0 905.678 0C907.078 0 908.278 0.500037 909.178 1.60004C917.078 11.1 925.678 34.5 930.378 37.9C935.078 41.3 960.078 42.2 971.478 46.9C972.778 47.4 973.678 48.4 974.178 49.7C974.578 51 974.378 52.3 973.678 53.5C967.078 64 947.478 79.4 945.678 84.9C943.878 90.5 950.678 114.5 949.878 126.8C949.778 128.2 949.078 129.3 947.978 130.2C946.878 131 945.578 131.2 944.178 130.9C932.178 127.9 911.478 114 905.678 114C899.878 114 879.178 127.9 867.178 130.9C865.778 131.2 864.478 131 863.378 130.2C862.478 129.5 861.878 128.6 861.678 127.6C862.778 128.9 864.578 129.1 867.378 128.2C877.478 125 889.578 114.2 896.278 109.8C899.978 107.3 903.178 106.7 907.378 108.9C918.678 114.6 926.578 121.7 938.278 126.8C941.678 128.3 947.478 130.3 946.978 123.5C946.278 112 936.178 93.6 932.578 82C931.978 80.2 933.578 77.9 935.178 76.8C947.378 68.8 955.178 62.9 968.978 52.9C971.878 50.8 971.778 47.8 967.478 47Z" fill="url(#paint19_linear_34_922)"/>
</g>
</g>
</g>
<defs>
<filter id="filter0_d_34_922" x="690" y="673.546" width="94" height="97.523" filterUnits="userSpaceOnUse" color-interpolation-filters="sRGB">
<feFlood flood-opacity="0" result="BackgroundImageFix"/>
<feColorMatrix in="SourceAlpha" type="matrix" values="0 0 0 0 0 0 0 0 0 0 0 0 0 0 0 0 0 0 127 0" result="hardAlpha"/>
<feOffset dy="2"/>
<feComposite in2="hardAlpha" operator="out"/>
<feColorMatrix type="matrix" values="0 0 0 0 0 0 0 0 0 0 0 0 0 0 0 0 0 0 0.15 0"/>
<feBlend mode="normal" in2="BackgroundImageFix" result="effect1_dropShadow_34_922"/>
<feBlend mode="normal" in="SourceGraphic" in2="effect1_dropShadow_34_922" result="shape"/>
</filter>
<filter id="filter1_d_34_922" x="733.769" y="697.294" width="8.54492" height="49.7061" filterUnits="userSpaceOnUse" color-interpolation-filters="sRGB">
<feFlood flood-opacity="0" result="BackgroundImageFix"/>
<feColorMatrix in="SourceAlpha" type="matrix" values="0 0 0 0 0 0 0 0 0 0 0 0 0 0 0 0 0 0 127 0" result="hardAlpha"/>
<feOffset dy="1"/>
<feComposite in2="hardAlpha" operator="out"/>
<feColorMatrix type="matrix" values="0 0 0 0 0 0 0 0 0 0 0 0 0 0 0 0 0 0 0.15 0"/>
<feBlend mode="normal" in2="BackgroundImageFix" result="effect1_dropShadow_34_922"/>
<feBlend mode="normal" in="SourceGraphic" in2="effect1_dropShadow_34_922" result="shape"/>
</filter>
<filter id="filter2_d_34_922" x="1025" y="503.546" width="94" height="97.523" filterUnits="userSpaceOnUse" color-interpolation-filters="sRGB">
<feFlood flood-opacity="0" result="BackgroundImageFix"/>
<feColorMatrix in="SourceAlpha" type="matrix" values="0 0 0 0 0 0 0 0 0 0 0 0 0 0 0 0 0 0 127 0" result="hardAlpha"/>
<feOffset dy="2"/>
<feComposite in2="hardAlpha" operator="out"/>
<feColorMatrix type="matrix" values="0 0 0 0 0 0 0 0 0 0 0 0 0 0 0 0 0 0 0.15 0"/>
<feBlend mode="normal" in2="BackgroundImageFix" result="effect1_dropShadow_34_922"/>
<feBlend mode="normal" in="SourceGraphic" in2="effect1_dropShadow_34_922" result="shape"/>
</filter>
<filter id="filter3_d_34_922" x="1058.16" y="521.508" width="27.3096" height="50.4922" filterUnits="userSpaceOnUse" color-interpolation-filters="sRGB">
<feFlood flood-opacity="0" result="BackgroundImageFix"/>
<feColorMatrix in="SourceAlpha" type="matrix" values="0 0 0 0 0 0 0 0 0 0 0 0 0 0 0 0 0 0 127 0" result="hardAlpha"/>
<feOffset dy="1"/>
<feComposite in2="hardAlpha" operator="out"/>
<feColorMatrix type="matrix" values="0 0 0 0 0 0 0 0 0 0 0 0 0 0 0 0 0 0 0.15 0"/>
<feBlend mode="normal" in2="BackgroundImageFix" result="effect1_dropShadow_34_922"/>
<feBlend mode="normal" in="SourceGraphic" in2="effect1_dropShadow_34_922" result="shape"/>
</filter>
<filter id="filter4_d_34_922" x="799" y="358.546" width="94" height="97.523" filterUnits="userSpaceOnUse" color-interpolation-filters="sRGB">
<feFlood flood-opacity="0" result="BackgroundImageFix"/>
<feColorMatrix in="SourceAlpha" type="matrix" values="0 0 0 0 0 0 0 0 0 0 0 0 0 0 0 0 0 0 127 0" result="hardAlpha"/>
<feOffset dy="2"/>
<feComposite in2="hardAlpha" operator="out"/>
<feColorMatrix type="matrix" values="0 0 0 0 0 0 0 0 0 0 0 0 0 0 0 0 0 0 0.15 0"/>
<feBlend mode="normal" in2="BackgroundImageFix" result="effect1_dropShadow_34_922"/>
<feBlend mode="normal" in="SourceGraphic" in2="effect1_dropShadow_34_922" result="shape"/>
</filter>
<filter id="filter5_d_34_922" x="832.162" y="376.508" width="27.3779" height="51.2783" filterUnits="userSpaceOnUse" color-interpolation-filters="sRGB">
<feFlood flood-opacity="0" result="BackgroundImageFix"/>
<feColorMatrix in="SourceAlpha" type="matrix" values="0 0 0 0 0 0 0 0 0 0 0 0 0 0 0 0 0 0 127 0" result="hardAlpha"/>
<feOffset dy="1"/>
<feComposite in2="hardAlpha" operator="out"/>
<feColorMatrix type="matrix" values="0 0 0 0 0 0 0 0 0 0 0 0 0 0 0 0 0 0 0.15 0"/>
<feBlend mode="normal" in2="BackgroundImageFix" result="effect1_dropShadow_34_922"/>
<feBlend mode="normal" in="SourceGraphic" in2="effect1_dropShadow_34_922" result="shape"/>
</filter>
<filter id="filter6_d_34_922" x="415" y="351.546" width="94" height="97.523" filterUnits="userSpaceOnUse" color-interpolation-filters="sRGB">
<feFlood flood-opacity="0" result="BackgroundImageFix"/>
<feColorMatrix in="SourceAlpha" type="matrix" values="0 0 0 0 0 0 0 0 0 0 0 0 0 0 0 0 0 0 127 0" result="hardAlpha"/>
<feOffset dy="2"/>
<feComposite in2="hardAlpha" operator="out"/>
<feColorMatrix type="matrix" values="0 0 0 0 0 0 0 0 0 0 0 0 0 0 0 0 0 0 0.15 0"/>
<feBlend mode="normal" in2="BackgroundImageFix" result="effect1_dropShadow_34_922"/>
<feBlend mode="normal" in="SourceGraphic" in2="effect1_dropShadow_34_922" result="shape"/>
</filter>
<filter id="filter7_d_34_922" x="445.957" y="368.294" width="29.1211" height="49.7061" filterUnits="userSpaceOnUse" color-interpolation-filters="sRGB">
<feFlood flood-opacity="0" result="BackgroundImageFix"/>
<feColorMatrix in="SourceAlpha" type="matrix" values="0 0 0 0 0 0 0 0 0 0 0 0 0 0 0 0 0 0 127 0" result="hardAlpha"/>
<feOffset dy="1"/>
<feComposite in2="hardAlpha" operator="out"/>
<feColorMatrix type="matrix" values="0 0 0 0 0 0 0 0 0 0 0 0 0 0 0 0 0 0 0.15 0"/>
<feBlend mode="normal" in2="BackgroundImageFix" result="effect1_dropShadow_34_922"/>
<feBlend mode="normal" in="SourceGraphic" in2="effect1_dropShadow_34_922" result="shape"/>
</filter>
<filter id="filter8_d_34_922" x="165" y="189.546" width="94" height="97.5229" filterUnits="userSpaceOnUse" color-interpolation-filters="sRGB">
<feFlood flood-opacity="0" result="BackgroundImageFix"/>
<feColorMatrix in="SourceAlpha" type="matrix" values="0 0 0 0 0 0 0 0 0 0 0 0 0 0 0 0 0 0 127 0" result="hardAlpha"/>
<feOffset dy="2"/>
<feComposite in2="hardAlpha" operator="out"/>
<feColorMatrix type="matrix" values="0 0 0 0 0 0 0 0 0 0 0 0 0 0 0 0 0 0 0.15 0"/>
<feBlend mode="normal" in2="BackgroundImageFix" result="effect1_dropShadow_34_922"/>
<feBlend mode="normal" in="SourceGraphic" in2="effect1_dropShadow_34_922" result="shape"/>
</filter>
<filter id="filter9_d_34_922" x="196.538" y="206.294" width="27.5146" height="50.3896" filterUnits="userSpaceOnUse" color-interpolation-filters="sRGB">
<feFlood flood-opacity="0" result="BackgroundImageFix"/>
<feColorMatrix in="SourceAlpha" type="matrix" values="0 0 0 0 0 0 0 0 0 0 0 0 0 0 0 0 0 0 127 0" result="hardAlpha"/>
<feOffset dy="1"/>
<feComposite in2="hardAlpha" operator="out"/>
<feColorMatrix type="matrix" values="0 0 0 0 0 0 0 0 0 0 0 0 0 0 0 0 0 0 0.15 0"/>
<feBlend mode="normal" in2="BackgroundImageFix" result="effect1_dropShadow_34_922"/>
<feBlend mode="normal" in="SourceGraphic" in2="effect1_dropShadow_34_922" result="shape"/>
</filter>
<filter id="filter10_d_34_922" x="477" y="33.5459" width="94" height="97.5229" filterUnits="userSpaceOnUse" color-interpolation-filters="sRGB">
<feFlood flood-opacity="0" result="BackgroundImageFix"/>
<feColorMatrix in="SourceAlpha" type="matrix" values="0 0 0 0 0 0 0 0 0 0 0 0 0 0 0 0 0 0 127 0" result="hardAlpha"/>
<feOffset dy="2"/>
<feComposite in2="hardAlpha" operator="out"/>
<feColorMatrix type="matrix" values="0 0 0 0 0 0 0 0 0 0 0 0 0 0 0 0 0 0 0.15 0"/>
<feBlend mode="normal" in2="BackgroundImageFix" result="effect1_dropShadow_34_922"/>
<feBlend mode="normal" in="SourceGraphic" in2="effect1_dropShadow_34_922" result="shape"/>
</filter>
<filter id="filter11_d_34_922" x="508.948" y="49.5078" width="27.5146" height="51.1758" filterUnits="userSpaceOnUse" color-interpolation-filters="sRGB">
<feFlood flood-opacity="0" result="BackgroundImageFix"/>
<feColorMatrix in="SourceAlpha" type="matrix" values="0 0 0 0 0 0 0 0 0 0 0 0 0 0 0 0 0 0 127 0" result="hardAlpha"/>
<feOffset dy="1"/>
<feComposite in2="hardAlpha" operator="out"/>
<feColorMatrix type="matrix" values="0 0 0 0 0 0 0 0 0 0 0 0 0 0 0 0 0 0 0.15 0"/>
<feBlend mode="normal" in2="BackgroundImageFix" result="effect1_dropShadow_34_922"/>
<feBlend mode="normal" in="SourceGraphic" in2="effect1_dropShadow_34_922" result="shape"/>
</filter>
<radialGradient id="paint0_radial_34_922" cx="0" cy="0" r="1" gradientUnits="userSpaceOnUse" gradientTransform="translate(869.578 12.6) scale(147.1 147.1)">
<stop offset="0.9" stop-color="#FFD600"/>
</radialGradient>
<radialGradient id="paint1_radial_34_922" cx="0" cy="0" r="1" gradientUnits="userSpaceOnUse" gradientTransform="translate(1046.88 467.4) scale(424 424)">
<stop offset="0.8" stop-color="#FFF500"/>
<stop offset="1"/>
</radialGradient>
<radialGradient id="paint2_radial_34_922" cx="0" cy="0" r="1" gradientUnits="userSpaceOnUse" gradientTransform="translate(971.178 129.7) scale(53.1001 53.1)">
<stop stop-color="#B5F6FF"/>
<stop offset="1"/>
</radialGradient>
<radialGradient id="paint3_radial_34_922" cx="0" cy="0" r="1" gradientUnits="userSpaceOnUse" gradientTransform="translate(937.878 55.6) scale(10.7 10.7001)">
<stop stop-color="#B0F5FF"/>
<stop offset="0.9" stop-color="#63BBFF"/>
</radialGradient>
<radialGradient id="paint4_radial_34_922" cx="0" cy="0" r="1" gradientUnits="userSpaceOnUse" gradientTransform="translate(920.678 103.9) scale(14.5999 14.6)">
<stop stop-color="#B0F5FF"/>
<stop offset="0.9" stop-color="#63BBFF"/>
</radialGradient>
<radialGradient id="paint5_radial_34_922" cx="0" cy="0" r="1" gradientUnits="userSpaceOnUse" gradientTransform="translate(917.078 70.5001) scale(13.5001 13.5)">
<stop stop-color="#B0F5FF"/>
<stop offset="0.9" stop-color="#63BBFF"/>
</radialGradient>
<radialGradient id="paint6_radial_34_922" cx="0" cy="0" r="1" gradientUnits="userSpaceOnUse" gradientTransform="translate(869.578 46.1) scale(19.4001 19.4)">
<stop stop-color="#B0F5FF"/>
<stop offset="0.9" stop-color="#63BBFF"/>
</radialGradient>
<radialGradient id="paint7_radial_34_922" cx="0" cy="0" r="1" gradientUnits="userSpaceOnUse" gradientTransform="translate(931.478 46.1001) scale(13.5999 13.6)">
<stop stop-color="#B0F5FF"/>
<stop offset="0.9" stop-color="#63BBFF"/>
</radialGradient>
<radialGradient id="paint8_radial_34_922" cx="0" cy="0" r="1" gradientUnits="userSpaceOnUse" gradientTransform="translate(865.678 68.8001) scale(10.6999 10.7)">
<stop stop-color="#B0F5FF"/>
<stop offset="0.9" stop-color="#63BBFF"/>
</radialGradient>
<radialGradient id="paint9_radial_34_922" cx="0" cy="0" r="1" gradientUnits="userSpaceOnUse" gradientTransform="translate(895.178 93.5) scale(13.6999 13.6999)">
<stop stop-color="#B0F5FF"/>
<stop offset="0.9" stop-color="#63BBFF"/>
</radialGradient>
<radialGradient id="paint10_radial_34_922" cx="0" cy="0" r="1" gradientUnits="userSpaceOnUse" gradientTransform="translate(866.778 110.1) scale(13.7001 13.7)">
<stop stop-color="#B0F5FF"/>
<stop offset="0.9" stop-color="#63BBFF"/>
</radialGradient>
<radialGradient id="paint11_radial_34_922" cx="0" cy="0" r="1" gradientUnits="userSpaceOnUse" gradientTransform="translate(935.978 108) scale(7.69997 7.70005)">
<stop stop-color="#B0F5FF"/>
<stop offset="0.9" stop-color="#63BBFF"/>
</radialGradient>
<radialGradient id="paint12_radial_34_922" cx="0" cy="0" r="1" gradientUnits="userSpaceOnUse" gradientTransform="translate(904.478 25.6) scale(11.2 11.2)">
<stop stop-color="#B0F5FF"/>
<stop offset="0.9" stop-color="#63BBFF"/>
</radialGradient>
<radialGradient id="paint13_radial_34_922" cx="0" cy="0" r="1" gradientUnits="userSpaceOnUse" gradientTransform="translate(906.478 41.5) scale(7.99993 7.99992)">
<stop stop-color="#B0F5FF"/>
<stop offset="0.9" stop-color="#63BBFF"/>
</radialGradient>
<radialGradient id="paint14_radial_34_922" cx="0" cy="0" r="1" gradientUnits="userSpaceOnUse" gradientTransform="translate(903.578 13.6) scale(8.1 8.09998)">
<stop stop-color="#B0F5FF"/>
<stop offset="0.9" stop-color="#63BBFF"/>
</radialGradient>
<radialGradient id="paint15_radial_34_922" cx="0" cy="0" r="1" gradientUnits="userSpaceOnUse" gradientTransform="translate(955.878 47.6) scale(8.70004 8.70002)">
<stop stop-color="#B0F5FF"/>
<stop offset="0.9" stop-color="#63BBFF"/>
</radialGradient>
<radialGradient id="paint16_radial_34_922" cx="0" cy="0" r="1" gradientUnits="userSpaceOnUse" gradientTransform="translate(860.378 53.0999) scale(10.0999 10.1001)">
<stop stop-color="#B0F5FF"/>
<stop offset="0.9" stop-color="#63BBFF"/>
</radialGradient>
<radialGradient id="paint17_radial_34_922" cx="0" cy="0" r="1" gradientUnits="userSpaceOnUse" gradientTransform="translate(852.078 -16.7) scale(128.4 128.4)">
<stop stop-color="#B5F6FF"/>
<stop offset="1"/>
</radialGradient>
<radialGradient id="paint18_radial_34_922" cx="0" cy="0" r="1" gradientUnits="userSpaceOnUse" gradientTransform="translate(855.778 -6.29993) scale(81.3 81.3)">
<stop stop-color="white"/>
<stop offset="1"/>
</radialGradient>
<linearGradient id="paint19_linear_34_922" x1="888.078" y1="186.5" x2="788.878" y2="24.6" gradientUnits="userSpaceOnUse">
<stop stop-color="#77AAC9"/>
<stop offset="0.5" stop-color="white"/>
</linearGradient>
</defs>
</svg>
